PathFileType	4	(X/Y/Z)	SUBJ26_3_walk_RCNL2025.trc
DataRate	CameraRate	NumFrames	NumMarkers	Units	OrigDataRate	OrigDataStartFrame	OrigNumFrames
100	100	6	25	mm	100	1	379
Frame#	Time	R_Shoulder			L_Shoulder			C7			J_Notch			R_Elbow			L_Elbow			R_Wrist			L_Wrist			R_Asis			L_Asis			Sacral			Thoracic			Sternum			R_Thigh_Lateral			R_Knee_Lateral			R_Shank_Lateral			R_Ankle_Lateral			R_Heel			R_Toe			L_Thigh_Lateral			L_Knee_Lateral			L_Shank_Lateral			L_Ankle_Lateral			L_Heel			L_Toe		
		X1	Y1	Z1	X2	Y2	Z2	X3	Y3	Z3	X4	Y4	Z4	X5	Y5	Z5	X6	Y6	Z6	X7	Y7	Z7	X8	Y8	Z8	X9	Y9	Z9	X10	Y10	Z10	X11	Y11	Z11	X12	Y12	Z12	X13	Y13	Z13	X14	Y14	Z14	X15	Y15	Z15	X16	Y16	Z16	X17	Y17	Z17	X18	Y18	Z18	X19	Y19	Z19	X20	Y20	Z20	X21	Y21	Z21	X22	Y22	Z22	X23	Y23	Z23	X24	Y24	Z24	X25	Y25	Z25
1	0.00000000	-2557.584961	1294.538696	353.521210	-2603.250000	1312.792847	22.932901	-2660.805176	1364.055298	212.237473	-2519.689209	1263.504150	177.244827	-2606.186035	978.354675	458.732269	-2711.148438	1000.605347	-77.724274	-2515.567627	743.086823	435.293259	-2639.797852	764.349640	-96.049835	-2543.427246	895.859741	311.112335	-2591.866211	895.375610	14.111854	-2772.656494	909.402039	192.188873	-2750.536377	1022.362732	191.930008	-2484.549561	1001.250244	167.485931	-2690.687256	572.841858	348.956818	-2729.322998	430.349518	272.886353	-2769.196533	281.628510	309.554688	-2803.065430	44.900215	229.484985	-2855.443359	36.616638	169.146927	-2681.092773	31.526678	203.724380	-2563.781006	589.672668	-34.615349	-2485.836426	442.493622	37.290657	-2494.740479	267.854919	-34.633362	-2468.572510	56.762924	47.998783	-2521.638916	31.402287	106.847816	-2348.467529	47.823162	70.751106
2	0.01000000	-2546.018311	1292.650757	352.614471	-2592.558105	1311.061035	22.107439	-2649.533691	1362.115112	211.579056	-2508.380615	1261.641113	176.355698	-2592.257812	976.655762	458.391602	-2703.906006	999.399963	-77.291336	-2497.475708	742.748840	436.085541	-2636.063354	762.228302	-96.632820	-2531.088135	894.156128	309.976562	-2580.269043	893.358215	12.937158	-2760.979980	907.285461	191.413864	-2739.231445	1020.414429	190.872101	-2472.586670	999.624634	166.234940	-2685.093018	573.050171	348.307617	-2724.583008	430.988953	272.026764	-2766.395264	282.695129	308.423065	-2802.760254	46.177032	228.486237	-2854.870605	38.420441	167.826706	-2680.814209	31.534643	203.572266	-2551.006836	587.556824	-34.209671	-2470.533691	441.034210	37.845341	-2468.946777	265.789154	-34.566017	-2431.802979	56.029980	48.093342	-2484.680664	28.795584	106.164505	-2311.684814	51.498985	72.326584
3	0.02000000	-2534.471680	1290.811401	351.641693	-2581.735352	1309.307617	21.207764	-2638.226807	1360.211182	210.811295	-2497.016846	1259.799683	175.439819	-2578.644531	975.003357	457.916992	-2696.356201	998.141724	-76.864265	-2479.595459	742.548920	436.790680	-2632.136719	760.069550	-97.146679	-2518.753906	892.454102	308.771423	-2568.360840	891.335022	11.596394	-2749.172607	905.143738	190.583008	-2727.859863	1018.459900	189.691376	-2460.692627	998.021973	164.934387	-2678.920166	573.240662	347.644928	-2719.196777	431.618439	271.187164	-2763.208008	283.853455	307.310944	-2802.365967	47.625042	227.554993	-2854.213867	40.466904	166.574692	-2680.480469	31.550144	203.426163	-2538.574219	585.196716	-33.854668	-2455.600342	439.449524	38.369843	-2443.955078	264.132355	-34.381878	-2396.406494	56.128635	48.440590	-2449.101562	27.062477	105.671783	-2276.478760	55.959911	74.286705
4	0.03000000	-2522.942139	1289.055054	350.600372	-2570.767578	1307.553101	20.226870	-2626.881592	1358.368774	209.926483	-2485.595703	1258.012817	174.496399	-2565.349121	973.427795	457.312317	-2688.478027	996.852844	-76.467461	-2462.178955	742.457489	437.428238	-2627.973877	757.899445	-97.600792	-2506.562500	890.765686	307.593445	-2556.137939	889.342957	10.170151	-2737.221191	903.012451	189.659927	-2716.391846	1016.520142	188.392944	-2448.768066	996.485352	163.579681	-2672.076904	573.391785	346.978149	-2713.161621	432.229065	270.412415	-2759.624756	285.106842	306.282715	-2801.868652	49.249435	226.756424	-2853.479980	42.769333	165.479660	-2680.094482	31.574158	203.301376	-2526.372070	582.645691	-33.540066	-2440.984131	437.788269	38.915047	-2419.948242	262.879547	-34.052727	-2362.773193	56.897064	49.005043	-2415.268799	26.006603	105.359680	-2243.210693	61.034515	76.508606
5	0.04000000	-2511.431641	1287.416260	349.494171	-2559.644775	1305.819946	19.157343	-2615.498291	1356.606079	208.916687	-2474.112061	1256.310425	173.517166	-2552.372803	971.957275	456.588776	-2680.250244	995.555115	-76.127731	-2445.415161	742.446716	438.005386	-2623.523438	755.748627	-98.007015	-2494.642090	889.093384	306.544006	-2543.690186	887.416565	8.771548	-2725.110352	900.924255	188.610962	-2704.790527	1014.611572	186.990753	-2436.747070	995.044739	162.181808	-2664.498779	573.491394	346.328003	-2706.475098	432.812927	269.745636	-2755.602295	286.452759	305.401825	-2801.253662	51.059254	226.152191	-2852.674316	45.344021	164.625198	-2679.660156	31.609365	203.211472	-2514.311523	579.990845	-33.229576	-2426.624512	436.105011	39.520481	-2397.063965	261.997406	-33.565662	-2331.276611	58.131660	49.750477	-2383.549316	25.433538	105.221191	-2212.220459	66.427963	78.876282
6	0.05000000	-2499.945312	1285.927979	348.330841	-2548.364014	1304.131226	17.991568	-2604.079102	1354.935547	207.775772	-2462.557373	1254.718140	172.489044	-2539.711914	970.616821	455.762695	-2671.652588	994.268188	-75.871948	-2429.384888	742.500641	438.504013	-2618.728882	753.649200	-98.382030	-2483.084229	887.442932	305.714752	-2531.111572	885.597717	7.493221	-2712.822266	898.908081	187.406570	-2693.013916	1012.747070	185.505341	-2424.607910	993.720581	160.765121	-2656.160645	573.541199	345.729279	-2699.138428	433.363770	269.223145	-2751.079590	287.883636	304.721771	-2800.502930	53.066540	225.794434	-2851.798828	48.211140	164.080612	-2679.178223	31.659821	203.167816	-2502.311523	577.347046	-32.875462	-2412.452637	434.454163	40.204857	-2375.397705	261.421875	-32.925812	-2302.249268	59.596615	50.649349	-2354.294189	25.158951	105.255455	-2183.799316	71.753433	81.304352
